HIERARCHY
ROOT hip
{
	OFFSET 0.000000 0.000000 0.000000 
	CHANNELS 6 Xposition Yposition Zposition Xrotation Zrotation Yrotation
	JOINT abdomen
	{
		OFFSET 0.000000 3.402643 0.000000 
		CHANNELS 3 Xrotation Zrotation Yrotation
		JOINT chest
		{
			OFFSET 0.000000 8.438565 -0.680529 
			CHANNELS 3 Xrotation Zrotation Yrotation
			JOINT neck
			{
				OFFSET 0.000000 10.207942 -0.272212 
				CHANNELS 3 Xrotation Zrotation Yrotation
				JOINT head
				{
					OFFSET 0.000000 3.130431 0.000000 
					CHANNELS 3 Xrotation Zrotation Yrotation
					End Site
					{
						OFFSET 0.000000 3.130435 0.000000 
					}
				}
			}
			JOINT lCollar
			{
				OFFSET 3.470700 6.669187 -0.816635 
				CHANNELS 3 Yrotation Zrotation Xrotation
				JOINT lShldr
				{
					OFFSET 3.198488 0.000000 0.000000 
					CHANNELS 3 Zrotation Yrotation Xrotation
					JOINT lForeArm
					{
						OFFSET 10.139888 0.000000 0.000000 
						CHANNELS 3 Yrotation Zrotation Xrotation
						JOINT lHand
						{
							OFFSET 8.370511 0.000000 0.000000 
							CHANNELS 3 Zrotation Yrotation Xrotation
							End Site
							{
								OFFSET 4.083176 0.000000 0.000000 
							}
						}
					}
				}
			}
			JOINT rCollar
			{
				OFFSET -3.470700 6.669187 -0.816635 
				CHANNELS 3 Yrotation Zrotation Xrotation
				JOINT rShldr
				{
					OFFSET -3.198488 0.000000 0.000000 
					CHANNELS 3 Zrotation Yrotation Xrotation
					JOINT rForeArm
					{
						OFFSET -10.139888 0.000000 0.000000 
						CHANNELS 3 Yrotation Zrotation Xrotation
						JOINT rHand
						{
							OFFSET -8.370511 0.000000 0.000000 
							CHANNELS 3 Zrotation Yrotation Xrotation
							End Site
							{
								OFFSET -4.083176 0.000000 0.000000 
							}
						}
					}
				}
			}
		}
	}
	JOINT lThigh
	{
		OFFSET 5.308129 -1.633274 1.361059 
		CHANNELS 3 Xrotation Zrotation Yrotation
		JOINT lShin
		{
			OFFSET -2.041588 -20.007561 0.000000 
			CHANNELS 3 Xrotation Zrotation Yrotation
			JOINT lFoot
			{
				OFFSET 0.000000 -19.190928 -1.224953 
				CHANNELS 3 Xrotation Yrotation Zrotation
				End Site
				{
					OFFSET 0.000000 -2.449906 4.627600 
				}
			}
		}
	}
	JOINT rThigh
	{
		OFFSET -5.308129 -1.633274 1.361059 
		CHANNELS 3 Xrotation Zrotation Yrotation
		JOINT rShin
		{
			OFFSET 2.041588 -20.007561 0.000000 
			CHANNELS 3 Xrotation Zrotation Yrotation
			JOINT rFoot
			{
				OFFSET 0.000000 -19.190928 -1.224953 
				CHANNELS 3 Xrotation Yrotation Zrotation
				End Site
				{
					OFFSET 0.000000 -2.449906 4.627600 
				}
			}
		}
	}
}
MOTION
Frames: 15
Frame Time: 0.033333
4.444171 45.934231 -4.122476 -13.492045 1.652351 -1.021226 0.000000 0.000000 0.000000 3.584683 -1.130597 -4.348346 5.265494 -0.023419 -4.426769 16.416145 -0.328949 0.491920 -16.094164 -2.178532 3.561257 1.257211 -38.483852 -11.402452 -33.111946 -1.032315 45.298927 11.761856 -8.243055 -4.517582 16.487999 -4.597075 4.788074 10.176960 45.701962 -15.421944 32.981934 2.162670 38.300461 -6.616558 7.144176 -3.952814 -3.105530 13.910966 11.291419 45.682636 1.147123 13.879910 -21.597181 2.794187 -14.535236 -3.320798 -19.852877 -11.662120 43.944889 -1.663658 -0.159743 -22.763872 -2.748422 13.623522 
4.471101 45.925304 -4.157511 -13.492110 1.661847 -1.052799 0.000000 0.000000 0.000000 3.555393 -1.140380 -4.348375 5.244694 -0.014478 -4.436296 16.377041 -0.270925 0.480548 -16.134029 -2.182200 3.528987 1.213149 -38.492817 -11.283472 -33.021030 -1.045471 45.550541 11.910215 -8.252210 -4.534302 16.436789 -4.390356 4.727600 9.946785 45.729393 -15.455140 32.899433 2.123969 38.734631 -6.887569 7.224211 -3.987676 -3.183584 13.873930 11.248338 45.745731 1.133450 13.979906 -21.611355 2.796529 -14.579085 -3.428304 -19.876984 -11.591653 44.003929 -1.686168 -0.196174 -22.736246 -2.760173 13.615528 
4.501050 45.930958 -4.196535 -13.511386 1.623729 -1.210262 0.000000 0.000000 0.000000 3.565101 -1.091634 -4.277165 5.247138 -0.003443 -4.336588 16.230589 -0.319415 0.464986 -16.023685 -2.189088 3.542447 1.289953 -38.609291 -11.143003 -32.836506 -1.170167 45.365105 12.092156 -8.180657 -4.552831 16.524965 -4.573012 4.758311 10.095852 45.731148 -15.516346 32.914055 2.164587 38.333481 -6.846426 7.197561 -3.985591 -3.134431 13.831222 11.308313 45.702095 1.095429 14.072585 -21.561506 2.806477 -14.594103 -3.506408 -19.867487 -11.513358 43.948902 -1.715426 -0.072856 -22.637197 -2.742970 13.612664 
4.529240 45.948208 -4.233947 -13.588850 1.518781 -1.275145 0.000000 0.000000 0.000000 3.623551 -0.955118 -4.279387 5.220246 -0.057117 -4.312148 16.337971 -0.261273 0.423455 -15.986203 -2.578577 3.577930 1.775924 -38.522362 -11.154017 -32.886681 -1.209228 45.337151 11.755573 -8.155385 -4.516183 16.586363 -4.460184 4.782848 9.997521 45.633293 -15.613743 33.019581 2.107036 38.387737 -6.515351 7.101884 -3.947568 -3.086089 13.883110 11.320978 45.714527 1.126993 14.163421 -21.531588 2.786102 -14.583287 -3.428003 -19.777117 -11.478697 43.790989 -1.731875 -0.054255 -22.488195 -2.709015 13.607915 
4.534774 45.977779 -4.290148 -13.589221 1.575735 -1.191246 0.000000 0.000000 0.000000 3.652984 -1.072037 -4.365484 5.235167 0.045890 -4.373511 16.269716 -0.396812 0.542225 -16.040071 -2.390050 3.611119 1.488468 -38.511543 -11.070799 -32.868217 -1.143641 45.510487 11.798996 -7.936951 -4.498052 16.356524 -4.347150 4.789866 9.792699 46.032242 -15.664845 32.612267 2.188435 38.364719 -6.750443 7.086437 -3.969914 -3.202799 13.879352 11.355734 45.655678 1.036400 14.089631 -21.428244 2.727757 -14.268020 -3.408838 -19.818048 -11.512320 43.668114 -1.686155 -0.108012 -22.374617 -2.690307 13.560039 
4.563844 46.005207 -4.344162 -13.403734 1.595959 -1.307853 0.000000 0.000000 0.000000 3.486951 -1.081978 -4.294613 5.172997 0.088817 -4.313036 16.338043 -0.358041 0.576312 -16.060118 -2.250969 3.469098 1.189855 -38.511009 -11.059941 -32.765930 -1.134979 45.739262 11.906014 -8.330827 -4.545022 16.523867 -3.827004 4.560674 9.313500 45.646610 -15.570431 32.811340 2.209676 38.474316 -6.357242 7.239472 -3.938605 -3.359297 13.824062 11.374275 45.534851 0.927482 14.167445 -21.348577 2.683916 -14.168594 -3.681612 -19.836058 -11.446283 43.500267 -1.695977 -0.077444 -22.169853 -2.670511 13.534030 
4.580708 46.029495 -4.382908 -13.471268 1.462547 -1.277929 0.000000 0.000000 0.000000 3.584483 -0.955159 -4.308033 5.158849 0.124267 -4.344558 16.464947 -0.290215 0.506755 -16.074373 -2.194549 3.588536 1.300966 -38.540665 -11.094195 -32.759697 -1.162020 45.826374 11.797538 -8.328662 -4.530158 16.369076 -4.032115 4.668789 9.525028 45.834126 -15.593633 32.739723 2.268729 38.116642 -6.498356 7.142147 -3.946514 -3.349886 13.983022 11.438206 45.514114 0.930723 14.140208 -21.278191 2.656457 -14.082827 -3.603791 -19.739159 -11.487494 43.415333 -1.624563 -0.072115 -22.069866 -2.620903 13.348463 
4.586874 46.068253 -4.427018 -13.461556 1.472104 -1.260420 0.000000 0.000000 0.000000 3.574716 -0.955169 -4.268807 5.221347 0.073429 -4.355279 16.347750 -0.280620 0.450072 -16.186829 -2.296803 3.563450 1.429265 -38.431873 -10.826166 -32.833179 -1.234418 45.494492 11.696792 -8.159511 -4.503628 16.288448 -4.245584 4.692839 9.898548 45.924122 -15.432553 32.592415 2.241174 38.184402 -6.758285 7.056560 -3.970438 -3.359129 13.902333 11.407001 45.341076 0.936464 14.206508 -21.125238 2.621447 -13.942743 -3.652393 -19.755421 -11.522472 43.306206 -1.556274 -0.204812 -21.888546 -2.569260 13.184122 
4.594554 46.090153 -4.463673 -13.597693 1.366849 -1.336348 0.000000 0.000000 0.000000 3.711383 -0.886808 -4.295948 5.340374 0.101653 -4.313828 16.220808 -0.300063 0.496930 -16.099718 -2.358517 3.696118 1.583460 -38.443096 -11.028277 -32.741821 -1.203912 45.811382 11.700279 -8.208216 -4.514788 16.621719 -3.956887 4.773341 9.554924 45.531651 -15.596802 32.730362 2.197296 38.367420 -6.463064 7.203181 -3.944403 -3.222882 14.011008 11.515709 45.302296 0.912920 14.198517 -21.063585 2.596215 -13.866937 -3.535189 -19.651056 -11.521143 43.191105 -1.536698 -0.239519 -21.758095 -2.537201 13.099690 
4.613176 46.107273 -4.516590 -13.178980 1.587929 -1.309135 0.000000 0.000000 0.000000 3.428335 -1.072297 -4.331984 5.153720 0.100400 -4.359740 16.025589 -0.416404 0.570687 -16.024038 -2.177830 3.437729 1.390833 -38.500298 -10.846844 -32.833755 -1.223694 45.538601 11.666007 -8.142089 -4.502231 16.562630 -4.200193 4.581457 9.851516 45.534592 -15.650867 32.845722 2.148649 38.396275 -6.258621 7.236133 -3.923564 -3.681519 13.735503 11.303407 45.185524 0.802562 14.372988 -20.967388 2.566948 -13.747312 -4.023673 -19.865053 -11.485161 43.154587 -1.526946 -0.295287 -21.653393 -2.516900 13.143472 
4.610785 46.143764 -4.555200 -13.100705 1.569412 -1.243953 0.000000 0.000000 0.000000 3.428325 -1.062549 -4.331398 4.966367 0.131421 -4.454367 16.299309 -0.638726 0.528821 -15.954381 -1.987975 3.460522 1.311153 -38.667110 -11.005196 -32.765785 -1.208076 45.591026 11.625425 -8.125355 -4.500366 16.372721 -4.498901 4.618391 10.164349 45.781853 -15.694108 32.697899 2.153464 38.331551 -6.368413 7.111512 -3.929907 -3.817896 13.773672 11.316806 45.114128 0.761725 14.282229 -20.905874 2.514751 -13.486116 -4.043341 -19.856279 -11.532160 42.979794 -1.451934 -0.243098 -21.550724 -2.487146 12.990744 
4.613176 46.154835 -4.577386 -13.149673 1.588119 -1.318089 0.000000 0.000000 0.000000 3.506508 -1.101450 -4.286415 4.965427 0.098314 -4.342920 16.250221 -0.435545 0.566452 -15.867456 -2.008529 3.514078 1.410466 -38.775337 -11.111395 -32.666164 -1.227910 45.483261 11.568782 -8.021634 -4.486888 16.436022 -4.402175 4.687097 9.832691 45.759441 -15.707185 32.629574 2.197410 38.207718 -6.286809 7.067916 -3.924484 -3.798499 13.755574 11.356719 45.125771 0.714909 14.291344 -20.883476 2.467761 -13.311554 -4.052608 -19.876770 -11.505400 42.985256 -1.471349 -0.152985 -21.523775 -2.466350 12.867511 
4.606757 46.155083 -4.592613 -13.090997 1.578986 -1.402145 0.000000 0.000000 0.000000 3.477217 -1.111232 -4.218086 4.955818 0.096534 -4.217139 16.191626 -0.435605 0.615726 -15.821278 -1.969483 3.492146 1.391725 -38.804550 -11.102230 -32.587067 -1.234827 45.438393 11.635961 -7.997344 -4.490152 16.413147 -4.404815 4.647137 9.766479 45.866047 -15.667768 32.502327 2.246554 38.058052 -6.331257 6.996501 -3.927130 -3.837312 13.772417 11.374733 45.128731 0.684816 14.347828 -20.870617 2.473280 -13.341345 -4.169918 -19.844414 -11.441740 42.974918 -1.464681 -0.131380 -21.505001 -2.454883 12.851707 
4.595182 46.163525 -4.603095 -13.013027 1.608029 -1.445646 0.000000 0.000000 0.000000 3.418682 -1.169790 -4.181389 4.915036 0.078265 -4.180904 16.172096 -0.435625 0.606109 -15.848745 -2.074014 3.426268 1.447219 -38.726837 -11.158964 -32.676208 -1.208374 45.532017 11.481377 -7.900483 -4.462258 16.501062 -4.369363 4.606999 9.711269 45.709007 -15.627804 32.649021 2.256910 38.010315 -6.150313 7.086617 -3.907313 -3.895764 13.704813 11.349326 45.064758 0.680988 14.456448 -20.807774 2.447618 -13.355470 -4.287341 -19.877052 -11.426640 43.005516 -1.458515 -0.157309 -21.478512 -2.448635 12.821276 
4.592410 46.172707 -4.593431 -13.100466 1.531366 -1.420652 0.000000 0.000000 0.000000 3.486962 -1.091726 -4.207318 4.967144 0.093770 -4.158440 16.181923 -0.493697 0.656892 -15.818398 -2.003184 3.506491 1.340816 -38.766628 -11.309425 -32.619144 -1.198113 45.617798 11.348327 -8.105586 -4.467734 16.608849 -4.371037 4.656204 9.831881 45.622166 -15.630043 32.696213 2.251530 37.924957 -6.364528 7.053045 -3.928706 -3.788116 13.769987 11.347700 45.032681 0.740218 14.422632 -20.817455 2.473025 -13.374267 -4.082410 -19.792521 -11.466473 42.857967 -1.429248 -0.102172 -21.445313 -2.456723 12.860711 
